<svg xmlns="http://www.w3.org/2000/svg" style="display:none">
  <symbol id="rank" viewBox="0 0 24 24"><path d="M6 20V10h4v10H6Zm8 0V4h4v16h-4ZM3 20h18" fill="none" stroke="currentColor" stroke-width="2" stroke-linecap="round" stroke-linejoin="round"/></symbol>
  <symbol id="floor" viewBox="0 0 24 24"><path d="M4 20V8l8-4 8 4v12H4Zm4-8h8M8 16h8" fill="none" stroke="currentColor" stroke-width="2" stroke-linejoin="round"/></symbol>
  <symbol id="money" viewBox="0 0 24 24"><path d="M12 3v18M16 7.5c0-2-1.8-3-4-3s-4 1-4 3 1.7 2.8 4 3.4 4 1.3 4 3.6-1.8 4-4 4-4-1-4-3" fill="none" stroke="currentColor" stroke-width="2" stroke-linecap="round"/></symbol>
  <symbol id="climb" viewBox="0 0 24 24"><path d="m5 18 5-5 3 3 6-8M14 8h5v5" fill="none" stroke="currentColor" stroke-width="2" stroke-linecap="round" stroke-linejoin="round"/></symbol>
  <symbol id="top" viewBox="0 0 24 24"><path d="m4 16 4-7 4 4 4-8 4 11H4Z" fill="none" stroke="currentColor" stroke-width="2" stroke-linejoin="round"/></symbol>
  <symbol id="arrow-up" viewBox="0 0 24 24"><path d="M12 20V5m0 0-6 6m6-6 6 6" fill="none" stroke="currentColor" stroke-width="2" stroke-linecap="round" stroke-linejoin="round"/></symbol>
  <symbol id="arrow-down" viewBox="0 0 24 24"><path d="M12 4v15m0 0-6-6m6 6 6-6" fill="none" stroke="currentColor" stroke-width="2" stroke-linecap="round" stroke-linejoin="round"/></symbol>
  <symbol id="live" viewBox="0 0 24 24"><circle cx="12" cy="12" r="3" fill="currentColor"/><path d="M5.6 5.6a9 9 0 0 0 0 12.8m12.8 0a9 9 0 0 0 0-12.8M8.5 8.5a5 5 0 0 0 0 7m7 0a5 5 0 0 0 0-7" fill="none" stroke="currentColor" stroke-width="2" stroke-linecap="round"/></symbol>
  <symbol id="website" viewBox="0 0 24 24"><circle cx="12" cy="12" r="9" fill="none" stroke="currentColor" stroke-width="2"/><path d="M3 12h18M12 3c3 3.5 3 14 0 18M12 3c-3 3.5-3 14 0 18" fill="none" stroke="currentColor" stroke-width="2"/></symbol>
  <symbol id="category" viewBox="0 0 24 24"><rect x="3" y="3" width="7" height="7" rx="1" fill="none" stroke="currentColor" stroke-width="2"/><rect x="14" y="3" width="7" height="7" rx="1" fill="none" stroke="currentColor" stroke-width="2"/><rect x="3" y="14" width="7" height="7" rx="1" fill="none" stroke="currentColor" stroke-width="2"/><rect x="14" y="14" width="7" height="7" rx="1" fill="none" stroke="currentColor" stroke-width="2"/></symbol>
  <symbol id="location" viewBox="0 0 24 24"><path d="M20 10c0 5-8 11-8 11S4 15 4 10a8 8 0 1 1 16 0Z" fill="none" stroke="currentColor" stroke-width="2"/><circle cx="12" cy="10" r="2.5" fill="none" stroke="currentColor" stroke-width="2"/></symbol>
  <symbol id="hiring" viewBox="0 0 24 24"><path d="M4 7h16v12H4V7Zm5 0V5h6v2M8 12h8" fill="none" stroke="currentColor" stroke-width="2" stroke-linecap="round"/></symbol>
  <symbol id="verified" viewBox="0 0 24 24"><path d="m12 2 2.2 2.1 3-.2.8 2.9 2.6 1.5-1 2.8 1 2.8-2.6 1.5-.8 2.9-3-.2L12 22l-2.2-2.1-3 .2-.8-2.9-2.6-1.5 1-2.8-1-2.8L6 8.7l.8-2.9 3 .2L12 2Z" fill="none" stroke="currentColor" stroke-width="1.7"/><path d="m8.5 12 2.2 2.2 4.8-5" fill="none" stroke="currentColor" stroke-width="2" stroke-linecap="round"/></symbol>
  <symbol id="share" viewBox="0 0 24 24"><circle cx="18" cy="5" r="2.5" fill="none" stroke="currentColor" stroke-width="2"/><circle cx="6" cy="12" r="2.5" fill="none" stroke="currentColor" stroke-width="2"/><circle cx="18" cy="19" r="2.5" fill="none" stroke="currentColor" stroke-width="2"/><path d="m8.3 10.8 7.4-4.5M8.3 13.2l7.4 4.5" fill="none" stroke="currentColor" stroke-width="2"/></symbol>
  <symbol id="close" viewBox="0 0 24 24"><path d="m6 6 12 12M18 6 6 18" fill="none" stroke="currentColor" stroke-width="2" stroke-linecap="round"/></symbol>
  <symbol id="menu" viewBox="0 0 24 24"><path d="M4 7h16M4 12h16M4 17h16" fill="none" stroke="currentColor" stroke-width="2" stroke-linecap="round"/></symbol>
  <symbol id="reset" viewBox="0 0 24 24"><path d="M5 8V4m0 0h4M5 4l3 3a8 8 0 1 1-2 8" fill="none" stroke="currentColor" stroke-width="2" stroke-linecap="round" stroke-linejoin="round"/></symbol>
  <symbol id="zoom" viewBox="0 0 24 24"><circle cx="10.5" cy="10.5" r="6.5" fill="none" stroke="currentColor" stroke-width="2"/><path d="m15.5 15.5 5 5M10.5 7v7M7 10.5h7" fill="none" stroke="currentColor" stroke-width="2" stroke-linecap="round"/></symbol>
  <symbol id="rotate" viewBox="0 0 24 24"><path d="M7 7h-4V3M3 7a9 9 0 1 1-1 9" fill="none" stroke="currentColor" stroke-width="2" stroke-linecap="round" stroke-linejoin="round"/></symbol>
  <symbol id="sound" viewBox="0 0 24 24"><path d="M4 10h4l5-4v12l-5-4H4v-4Zm13-1a4 4 0 0 1 0 6m2-9a8 8 0 0 1 0 12" fill="none" stroke="currentColor" stroke-width="2" stroke-linecap="round" stroke-linejoin="round"/></symbol>
  <symbol id="environment" viewBox="0 0 24 24"><path d="M3 18h18M5 18l4-8 3 4 3-7 4 11" fill="none" stroke="currentColor" stroke-width="2" stroke-linecap="round" stroke-linejoin="round"/></symbol>
  <symbol id="day" viewBox="0 0 24 24"><circle cx="12" cy="12" r="4" fill="none" stroke="currentColor" stroke-width="2"/><path d="M12 2v3M12 19v3M2 12h3M19 12h3M5 5l2 2m10 10 2 2M19 5l-2 2M7 17l-2 2" fill="none" stroke="currentColor" stroke-width="2" stroke-linecap="round"/></symbol>
  <symbol id="sunset" viewBox="0 0 24 24"><path d="M4 18h16M7 15a5 5 0 0 1 10 0M12 3v4M4 10l3 1M20 10l-3 1" fill="none" stroke="currentColor" stroke-width="2" stroke-linecap="round"/></symbol>
  <symbol id="night" viewBox="0 0 24 24"><path d="M19 15a8 8 0 0 1-10-10 8 8 0 1 0 10 10Z" fill="none" stroke="currentColor" stroke-width="2" stroke-linejoin="round"/></symbol>
</svg>
